<mxfile host="app.diagrams.net" version="22.1.18" type="device">
  <diagram name="PÃ¡gina-1" id="Q4B67R5pt6q1zwkPi2ua">
    <mxGraphModel dx="2062" dy="655" grid="1" gridSize="10" guides="1" tooltips="1" connect="1" arrows="1" fold="1" page="1" pageScale="1" pageWidth="827" pageHeight="1169" math="0" shadow="0">
      <root>
        <mxCell id="0" />
        <mxCell id="1" parent="0" />
        <mxCell id="mk9xFAqrucdhcpg4dsiy-6" value="" style="group;verticalAlign=top;" vertex="1" connectable="0" parent="1">
          <mxGeometry x="-130" y="220" width="140" height="100" as="geometry" />
        </mxCell>
        <mxCell id="mk9xFAqrucdhcpg4dsiy-4" value="&lt;div&gt;SteamAudioConfig&lt;/div&gt;" style="rounded=0;whiteSpace=wrap;html=1;fontFamily=Plex Mono;verticalAlign=top;fillColor=#dae8fc;strokeColor=#6c8ebf;" vertex="1" parent="mk9xFAqrucdhcpg4dsiy-6">
          <mxGeometry width="140" height="33.333333333333336" as="geometry" />
        </mxCell>
        <mxCell id="mk9xFAqrucdhcpg4dsiy-5" value="Makes the server tick() and allows the user to configure settings" style="rounded=0;whiteSpace=wrap;html=1;" vertex="1" parent="mk9xFAqrucdhcpg4dsiy-6">
          <mxGeometry y="33.333333333333336" width="140" height="66.66666666666667" as="geometry" />
        </mxCell>
        <mxCell id="mk9xFAqrucdhcpg4dsiy-7" value="" style="group" vertex="1" connectable="0" parent="1">
          <mxGeometry x="160" y="20" width="140" height="100" as="geometry" />
        </mxCell>
        <mxCell id="mk9xFAqrucdhcpg4dsiy-1" value="&lt;div&gt;SteamAudioServer&lt;/div&gt;&lt;div&gt;&lt;br&gt;&lt;/div&gt;" style="rounded=0;whiteSpace=wrap;html=1;fontFamily=Plex Mono;verticalAlign=top;fillColor=#dae8fc;strokeColor=#6c8ebf;" vertex="1" parent="mk9xFAqrucdhcpg4dsiy-7">
          <mxGeometry width="140" height="33.333333333333336" as="geometry" />
        </mxCell>
        <mxCell id="mk9xFAqrucdhcpg4dsiy-2" value="Centralizes global inner SteamAudio state, used by everything" style="rounded=0;whiteSpace=wrap;html=1;" vertex="1" parent="mk9xFAqrucdhcpg4dsiy-7">
          <mxGeometry y="33.333333333333336" width="140" height="66.66666666666667" as="geometry" />
        </mxCell>
        <mxCell id="mk9xFAqrucdhcpg4dsiy-8" style="edgeStyle=orthogonalEdgeStyle;rounded=0;orthogonalLoop=1;jettySize=auto;html=1;curved=1;entryX=0.5;entryY=1;entryDx=0;entryDy=0;exitX=0.5;exitY=0;exitDx=0;exitDy=0;" edge="1" parent="1" source="mk9xFAqrucdhcpg4dsiy-4" target="mk9xFAqrucdhcpg4dsiy-2">
          <mxGeometry relative="1" as="geometry">
            <mxPoint x="140" y="170" as="targetPoint" />
          </mxGeometry>
        </mxCell>
        <mxCell id="mk9xFAqrucdhcpg4dsiy-9" value="" style="group;verticalAlign=bottom;" vertex="1" connectable="0" parent="1">
          <mxGeometry x="269" y="220" width="160" height="100" as="geometry" />
        </mxCell>
        <mxCell id="mk9xFAqrucdhcpg4dsiy-10" value="&lt;div&gt;SteamAudioGeometry&lt;/div&gt;&lt;div&gt;&lt;br&gt;&lt;/div&gt;" style="rounded=0;whiteSpace=wrap;html=1;fontFamily=Plex Mono;verticalAlign=top;fillColor=#dae8fc;strokeColor=#6c8ebf;" vertex="1" parent="mk9xFAqrucdhcpg4dsiy-9">
          <mxGeometry width="159.99999999999997" height="33.333333333333336" as="geometry" />
        </mxCell>
        <mxCell id="mk9xFAqrucdhcpg4dsiy-11" value="Creates an IPLStaticMesh and sends it to SteamAudioServer at _ready()" style="rounded=0;whiteSpace=wrap;html=1;" vertex="1" parent="mk9xFAqrucdhcpg4dsiy-9">
          <mxGeometry y="33.333333333333336" width="159.99999999999997" height="66.66666666666667" as="geometry" />
        </mxCell>
        <mxCell id="mk9xFAqrucdhcpg4dsiy-13" style="edgeStyle=orthogonalEdgeStyle;rounded=0;orthogonalLoop=1;jettySize=auto;html=1;curved=1;entryX=0.5;entryY=1;entryDx=0;entryDy=0;exitX=0.5;exitY=0;exitDx=0;exitDy=0;" edge="1" parent="1" source="mk9xFAqrucdhcpg4dsiy-10" target="mk9xFAqrucdhcpg4dsiy-2">
          <mxGeometry relative="1" as="geometry">
            <mxPoint x="230" y="110" as="targetPoint" />
          </mxGeometry>
        </mxCell>
        <mxCell id="mk9xFAqrucdhcpg4dsiy-15" value="" style="group;verticalAlign=bottom;" vertex="1" connectable="0" parent="1">
          <mxGeometry x="70" y="220" width="140" height="100" as="geometry" />
        </mxCell>
        <mxCell id="mk9xFAqrucdhcpg4dsiy-16" value="&lt;div&gt;SteamAudioPlayer&lt;/div&gt;" style="rounded=0;whiteSpace=wrap;html=1;fontFamily=Plex Mono;verticalAlign=top;fillColor=#dae8fc;strokeColor=#6c8ebf;" vertex="1" parent="mk9xFAqrucdhcpg4dsiy-15">
          <mxGeometry width="139.99999999999997" height="33.333333333333336" as="geometry" />
        </mxCell>
        <mxCell id="mk9xFAqrucdhcpg4dsiy-17" value="Marks the audio source position for SteamAudio simulation" style="rounded=0;whiteSpace=wrap;html=1;" vertex="1" parent="mk9xFAqrucdhcpg4dsiy-15">
          <mxGeometry y="33.333333333333336" width="139.99999999999997" height="66.66666666666667" as="geometry" />
        </mxCell>
        <mxCell id="mk9xFAqrucdhcpg4dsiy-18" value="" style="group;verticalAlign=bottom;" vertex="1" connectable="0" parent="1">
          <mxGeometry x="-30" y="390" width="139" height="90" as="geometry" />
        </mxCell>
        <mxCell id="mk9xFAqrucdhcpg4dsiy-19" value="&lt;div&gt;SteamAudioStream&lt;/div&gt;" style="rounded=0;whiteSpace=wrap;html=1;fontFamily=Plex Mono;verticalAlign=top;fillColor=#dae8fc;strokeColor=#6c8ebf;" vertex="1" parent="mk9xFAqrucdhcpg4dsiy-18">
          <mxGeometry width="138.99999999999997" height="30.000000000000004" as="geometry" />
        </mxCell>
        <mxCell id="mk9xFAqrucdhcpg4dsiy-20" value="Instantiates a playback" style="rounded=0;whiteSpace=wrap;html=1;" vertex="1" parent="mk9xFAqrucdhcpg4dsiy-18">
          <mxGeometry y="30.000000000000004" width="138.99999999999997" height="60.00000000000001" as="geometry" />
        </mxCell>
        <mxCell id="mk9xFAqrucdhcpg4dsiy-21" value="" style="group;verticalAlign=bottom;" vertex="1" connectable="0" parent="1">
          <mxGeometry x="350" y="360" width="159" height="100" as="geometry" />
        </mxCell>
        <mxCell id="mk9xFAqrucdhcpg4dsiy-22" value="&lt;div&gt;SteamAudioMaterial&lt;/div&gt;" style="rounded=0;whiteSpace=wrap;html=1;fontFamily=Plex Mono;verticalAlign=top;fillColor=#dae8fc;strokeColor=#6c8ebf;" vertex="1" parent="mk9xFAqrucdhcpg4dsiy-21">
          <mxGeometry width="158.99999999999997" height="33.333333333333336" as="geometry" />
        </mxCell>
        <mxCell id="mk9xFAqrucdhcpg4dsiy-23" value="Saveable resource, defines 3-band EQ transmission, absorption and scattering" style="rounded=0;whiteSpace=wrap;html=1;" vertex="1" parent="mk9xFAqrucdhcpg4dsiy-21">
          <mxGeometry y="33.333333333333336" width="158.99999999999997" height="66.66666666666667" as="geometry" />
        </mxCell>
        <mxCell id="mk9xFAqrucdhcpg4dsiy-24" value="" style="group;verticalAlign=bottom;" vertex="1" connectable="0" parent="1">
          <mxGeometry x="480" y="220" width="139" height="100" as="geometry" />
        </mxCell>
        <mxCell id="mk9xFAqrucdhcpg4dsiy-25" value="&lt;div&gt;SteamAudioListener&lt;/div&gt;&lt;div&gt;&lt;br&gt;&lt;/div&gt;" style="rounded=0;whiteSpace=wrap;html=1;fontFamily=Plex Mono;verticalAlign=top;fillColor=#dae8fc;strokeColor=#6c8ebf;" vertex="1" parent="mk9xFAqrucdhcpg4dsiy-24">
          <mxGeometry width="138.99999999999997" height="33.333333333333336" as="geometry" />
        </mxCell>
        <mxCell id="mk9xFAqrucdhcpg4dsiy-26" value="Marks the listener position for SteamAudio simulation" style="rounded=0;whiteSpace=wrap;html=1;" vertex="1" parent="mk9xFAqrucdhcpg4dsiy-24">
          <mxGeometry y="33.333333333333336" width="138.99999999999997" height="66.66666666666667" as="geometry" />
        </mxCell>
        <mxCell id="mk9xFAqrucdhcpg4dsiy-27" value="" style="group;verticalAlign=bottom;" vertex="1" connectable="0" parent="1">
          <mxGeometry x="170" y="370" width="138" height="100" as="geometry" />
        </mxCell>
        <mxCell id="mk9xFAqrucdhcpg4dsiy-28" value="&lt;div&gt;SteamAudioStream&lt;/div&gt;Playback" style="rounded=0;whiteSpace=wrap;html=1;fontFamily=Plex Mono;verticalAlign=middle;fillColor=#dae8fc;strokeColor=#6c8ebf;" vertex="1" parent="mk9xFAqrucdhcpg4dsiy-27">
          <mxGeometry width="137.99999999999997" height="33.333333333333336" as="geometry" />
        </mxCell>
        <mxCell id="mk9xFAqrucdhcpg4dsiy-29" value="Mixes its inner playback&#39;s audio and applies SteamAudio effects to it" style="rounded=0;whiteSpace=wrap;html=1;" vertex="1" parent="mk9xFAqrucdhcpg4dsiy-27">
          <mxGeometry y="33.333333333333336" width="137.99999999999997" height="66.66666666666667" as="geometry" />
        </mxCell>
        <mxCell id="mk9xFAqrucdhcpg4dsiy-31" style="edgeStyle=orthogonalEdgeStyle;rounded=0;orthogonalLoop=1;jettySize=auto;html=1;elbow=vertical;curved=1;exitX=0.5;exitY=0;exitDx=0;exitDy=0;entryX=0.5;entryY=1;entryDx=0;entryDy=0;" edge="1" parent="1" source="mk9xFAqrucdhcpg4dsiy-16" target="mk9xFAqrucdhcpg4dsiy-2">
          <mxGeometry relative="1" as="geometry">
            <mxPoint x="380" y="130" as="targetPoint" />
          </mxGeometry>
        </mxCell>
        <mxCell id="mk9xFAqrucdhcpg4dsiy-33" style="edgeStyle=orthogonalEdgeStyle;rounded=0;orthogonalLoop=1;jettySize=auto;html=1;exitX=0.5;exitY=0;exitDx=0;exitDy=0;curved=1;entryX=0.5;entryY=1;entryDx=0;entryDy=0;" edge="1" parent="1" source="mk9xFAqrucdhcpg4dsiy-25" target="mk9xFAqrucdhcpg4dsiy-2">
          <mxGeometry relative="1" as="geometry">
            <mxPoint x="255.3072625698324" y="120" as="targetPoint" />
          </mxGeometry>
        </mxCell>
        <mxCell id="mk9xFAqrucdhcpg4dsiy-34" style="edgeStyle=orthogonalEdgeStyle;rounded=0;orthogonalLoop=1;jettySize=auto;html=1;exitX=0.5;exitY=0;exitDx=0;exitDy=0;entryX=0.5;entryY=1;entryDx=0;entryDy=0;curved=1;" edge="1" parent="1" source="mk9xFAqrucdhcpg4dsiy-22" target="mk9xFAqrucdhcpg4dsiy-11">
          <mxGeometry relative="1" as="geometry" />
        </mxCell>
        <mxCell id="mk9xFAqrucdhcpg4dsiy-35" style="edgeStyle=orthogonalEdgeStyle;rounded=0;orthogonalLoop=1;jettySize=auto;html=1;entryX=0.5;entryY=1;entryDx=0;entryDy=0;curved=1;exitX=0.5;exitY=0;exitDx=0;exitDy=0;" edge="1" parent="1" source="mk9xFAqrucdhcpg4dsiy-19" target="mk9xFAqrucdhcpg4dsiy-17">
          <mxGeometry relative="1" as="geometry" />
        </mxCell>
        <mxCell id="mk9xFAqrucdhcpg4dsiy-36" style="edgeStyle=orthogonalEdgeStyle;rounded=0;orthogonalLoop=1;jettySize=auto;html=1;entryX=0;entryY=0.5;entryDx=0;entryDy=0;curved=1;exitX=1;exitY=0.5;exitDx=0;exitDy=0;" edge="1" parent="1" source="mk9xFAqrucdhcpg4dsiy-19" target="mk9xFAqrucdhcpg4dsiy-28">
          <mxGeometry relative="1" as="geometry">
            <mxPoint x="50" y="380" as="sourcePoint" />
          </mxGeometry>
        </mxCell>
        <mxCell id="mk9xFAqrucdhcpg4dsiy-38" style="edgeStyle=orthogonalEdgeStyle;rounded=0;orthogonalLoop=1;jettySize=auto;html=1;entryX=0.5;entryY=1;entryDx=0;entryDy=0;curved=1;" edge="1" parent="1" source="mk9xFAqrucdhcpg4dsiy-28" target="mk9xFAqrucdhcpg4dsiy-17">
          <mxGeometry relative="1" as="geometry" />
        </mxCell>
      </root>
    </mxGraphModel>
  </diagram>
</mxfile>
